<svg width="16" height="16" viewBox="0 0 16 16" fill="none" xmlns="http://www.w3.org/2000/svg">
<path d="M13.5 1h-9A2.503 2.503 0 0 0 2 3.5v2.776a4.431 4.431 0 0 1 1-.226V3.499c0-.827.673-1.5 1.5-1.5h4v11.386l1.057 1.057c.157.149.274.344.35.557H13.5c1.378 0 2.5-1.122 2.5-2.5V3.5C16 2.122 14.878 1 13.5 1ZM15 12.5c0 .827-.673 1.5-1.5 1.5h-4V2h4c.827 0 1.5.673 1.5 1.5v9Zm-8.71.09c.45-.58.71-1.31.71-2.09C7 8.57 5.43 7 3.5 7S0 8.57 0 10.5 1.57 14 3.5 14c.78 0 1.51-.26 2.09-.71l2.56 2.56c.09.1.22.15.35.15.13 0 .26-.05.35-.15.2-.19.2-.51 0-.7l-2.56-2.56ZM5.5 12a2.503 2.503 0 0 1-2 1 2.5 2.5 0 0 1 0-5 2.5 2.5 0 0 1 2 4Z" fill="#009FE3"/>
</svg>
